<svg width="41" height="46" fill="none" xmlns="http://www.w3.org/2000/svg"><path d="M4.007 27.093c-.379.001-.75-.11-1.07-.32a2.063 2.063 0 01-.741-.868 2.175 2.175 0 01.25-2.22l19.8-21.324a.99.99 0 01.575-.344.962.962 0 01.653.107c.2.111.358.291.448.509.089.218.105.46.045.69l-3.84 12.585a2.18 2.18 0 00.232 1.926c.185.278.431.504.718.66.287.157.606.238.93.236h14c.378-.001.75.11 1.07.32.32.21.577.512.74.869a2.174 2.174 0 01-.25 2.22l-19.8 21.323a.99.99 0 01-.574.344.962.962 0 01-.654-.106 1.03 1.03 0 01-.447-.51 1.09 1.09 0 01-.045-.69l3.84-12.585a2.177 2.177 0 00-.232-1.926 2.029 2.029 0 00-.719-.66 1.93 1.93 0 00-.93-.236h-14z" stroke="#fff" stroke-width="4" stroke-linecap="round" stroke-linejoin="round"/></svg>