<svg width="35" height="35" fill="none" xmlns="http://www.w3.org/2000/svg"><path d="M32.083 24.675v4.375a2.918 2.918 0 01-3.18 2.917A28.86 28.86 0 0116.32 27.49a28.439 28.439 0 01-8.75-8.75A28.86 28.86 0 013.09 6.096a2.916 2.916 0 012.903-3.18h4.374a2.917 2.917 0 012.917 2.509c.185 1.4.527 2.775 1.021 4.098a2.917 2.917 0 01-.656 3.077l-1.852 1.852a23.334 23.334 0 008.75 8.75L22.4 21.35a2.917 2.917 0 013.077-.656 18.73 18.73 0 004.098 1.02 2.916 2.916 0 012.508 2.961z" stroke="#fff" stroke-width="2" stroke-linecap="round" stroke-linejoin="round"/></svg>